# Blender v2.82 (sub 7) OBJ File: ''
# www.blender.org
mtllib tool.mtl
o tool_Cube.002
v -0.020000 -0.060000 0.020000
v -0.020000 0.060000 0.020000
v -0.020000 -0.060000 -0.020000
v -0.020000 0.060000 -0.020000
v 0.020000 -0.060000 0.020000
v 0.020000 0.060000 0.020000
v 0.020000 -0.060000 -0.020000
v 0.020000 0.060000 -0.020000
v -0.040000 0.067933 0.080000
v -0.040000 0.067933 -0.020000
v 0.040000 0.067933 -0.020000
v 0.040000 0.067933 0.080000
v -0.040000 0.076530 0.080000
v -0.040000 0.076530 -0.020000
v 0.040000 0.076530 -0.020000
v 0.040000 0.076530 0.080000
v 0.040000 0.097815 -0.053687
v -0.040000 0.097815 -0.053687
v 0.040000 0.067933 -0.053687
v -0.040000 0.067933 -0.053687
v 0.020000 0.060000 -0.053687
v -0.020000 0.060000 -0.053687
v 0.020000 0.043858 0.051090
v -0.020000 0.043858 0.051090
v 0.040000 0.060896 0.086963
v -0.040000 0.060896 0.086963
v 0.020000 0.039413 0.053201
v -0.020000 0.039413 0.053201
v 0.040000 0.056452 0.089074
v -0.040000 0.056452 0.089074
v 0.018166 0.040194 0.054846
v -0.018166 0.040194 0.054846
v 0.036333 0.055671 0.087430
v -0.036333 0.055671 0.087430
v 0.017061 0.051191 0.046898
v -0.017061 0.051191 0.046898
v 0.034123 0.065726 0.077500
v -0.034123 0.065726 0.077500
v -0.040000 0.078461 0.080000
v -0.040000 0.078461 0.074079
v 0.040000 0.078461 0.074079
v 0.040000 0.078461 0.080000
v -0.040000 0.139128 0.007411
v -0.040000 0.139128 0.001490
v 0.040000 0.139128 0.001490
v 0.040000 0.139128 0.007411
v 0.000000 0.075249 -0.147034
v 0.040000 0.143740 -0.007770
v 0.040000 0.144267 -0.002721
v 0.040000 0.140668 -0.002721
v -0.040000 0.140668 -0.002721
v -0.040000 0.144267 -0.002721
v -0.040000 0.143740 -0.007770
v 0.040000 0.141195 -0.005226
v -0.040000 0.141195 -0.005226
v -0.018348 0.095693 -0.048090
v -0.018348 0.093568 -0.044726
v 0.018282 0.093568 -0.044726
v 0.018282 0.095693 -0.048090
vt 0.375000 0.000000
vt 0.625000 0.000000
vt 0.625000 0.250000
vt 0.375000 0.250000
vt 0.625000 0.500000
vt 0.375000 0.500000
vt 0.625000 0.750000
vt 0.375000 0.750000
vt 0.625000 1.000000
vt 0.375000 1.000000
vt 0.125000 0.500000
vt 0.125000 0.750000
vt 0.625000 0.250000
vt 0.625000 0.250000
vt 0.625000 0.250000
vt 0.625000 0.750000
vt 0.625000 0.500000
vt 0.625000 0.500000
vt 0.625000 0.750000
vt 0.625000 0.000000
vt 0.625000 0.750000
vt 0.625000 0.750000
vt 0.625000 1.000000
vt 0.625000 0.750000
vt 0.625000 1.000000
vt 0.625000 0.000000
vt 0.625000 0.250000
vt 0.625000 1.000000
vt 0.625000 0.500000
vt 0.625000 0.500000
vt 0.625000 0.500000
vt 0.625000 0.250000
vt 0.625000 0.250000
vt 0.875000 0.500000
vt 0.875000 0.500000
vt 0.625000 0.500000
vt 0.625000 0.750000
vt 0.625000 0.750000
vt 0.625000 0.000000
vt 0.625000 0.000000
vt 0.625000 1.000000
vt 0.625000 1.000000
vt 0.625000 0.000000
vt 0.625000 0.000000
vt 0.625000 0.000000
vt 0.625000 0.000000
vt 0.625000 1.000000
vt 0.625000 1.000000
vt 0.625000 0.750000
vt 0.625000 1.000000
vt 0.625000 1.000000
vt 0.625000 0.750000
vt 0.625000 0.750000
vt 0.625000 1.000000
vt 0.625000 1.000000
vt 0.625000 0.750000
vt 0.625000 0.000000
vt 0.625000 0.000000
vt 0.625000 0.750000
vt 0.625000 1.000000
vt 0.875000 0.500000
vt 0.875000 0.500000
vt 0.625000 0.500000
vt 0.625000 0.000000
vt 0.625000 0.250000
vt 0.625000 0.500000
vt 0.625000 0.500000
vt 0.625000 0.750000
vt 0.875000 0.500000
vt 0.625000 0.000000
vt 0.625000 0.250000
vt 0.875000 0.500000
vt 0.875000 0.500000
vt 0.625000 0.500000
vt 0.625000 1.000000
vt 0.625000 0.000000
vt 0.625000 0.250000
vt 0.625000 0.000000
vt 0.625000 0.250000
vt 0.625000 1.000000
vt 0.625000 0.750000
vt 0.625000 0.750000
vt 0.625000 1.000000
vt 0.625000 0.500000
vt 0.875000 0.500000
vt 0.625000 0.500000
vt 0.875000 0.500000
vt 0.875000 0.750000
vt 0.625000 0.000000
vt 0.625000 0.250000
vt 0.625000 0.250000
vn -1.0000 0.0000 0.0000
vn 0.0000 0.0000 -1.0000
vn 1.0000 0.0000 0.0000
vn 0.0000 0.0000 1.0000
vn 0.0000 -1.0000 0.0000
vn -0.3687 -0.9296 0.0000
vn 0.3687 -0.9296 0.0000
vn 0.8718 -0.4183 -0.2548
vn -0.3592 -0.9057 -0.2249
vn 0.0000 0.9351 0.3544
vn 0.8931 -0.1930 -0.4063
vn -0.8718 -0.4183 -0.2548
vn 0.0000 0.7034 0.7108
vn 0.0000 -0.8875 -0.4608
vn 0.0000 -0.9033 0.4290
vn 0.0000 -0.4290 -0.9033
vn -0.8931 -0.1930 -0.4063
vn 0.0000 0.4290 0.9033
vn 0.0000 -0.7027 -0.7115
vn -0.8931 0.2011 0.4024
vn 0.0000 0.5858 0.8105
vn 0.8931 0.2011 0.4024
vn 0.0000 0.7673 0.6413
vn 0.0000 0.9998 -0.0205
vn 0.0000 -0.7673 -0.6413
vn 0.0000 -0.9392 -0.3435
vn 0.0000 0.9720 -0.2350
vn -0.9192 0.0000 -0.3939
vn 0.0000 -0.9869 -0.1612
vn 0.3592 -0.9057 -0.2249
vn 0.9192 0.0000 -0.3939
vn 0.0000 0.8919 0.4523
vn 0.0000 0.6428 -0.7660
vn 0.0000 -0.9786 -0.2059
vn 0.0000 0.9946 -0.1038
vn 0.0000 -0.8454 -0.5341
vn 0.0000 -0.6384 0.7697
vn 0.9442 -0.2583 -0.2042
vn -0.9445 -0.2576 -0.2036
vn -0.0552 0.8441 0.5333
vn 0.0000 0.8234 0.5674
vn 0.0550 0.8441 0.5333
usemtl None
s off
f 1/1/1 2/2/1 4/3/1 3/4/1
f 3/4/2 4/3/2 8/5/2 7/6/2
f 7/6/3 8/5/3 6/7/3 5/8/3
f 5/8/4 6/7/4 2/9/4 1/10/4
f 3/11/5 7/6/5 5/8/5 1/12/5
f 4/3/6 10/13/6 20/14/6 22/15/6
f 12/16/3 11/17/3 15/18/3 16/19/3
f 6/7/7 8/5/7 11/17/7 12/16/7
f 4/3/6 2/2/6 9/20/6 10/13/6
f 6/7/8 12/16/8 25/21/8 23/22/8
f 13/23/4 16/19/4 42/24/4 39/25/4
f 10/13/1 9/20/1 13/26/1 14/27/1
f 9/28/4 12/16/4 16/19/4 13/23/4
f 15/18/3 11/17/3 19/29/3 17/30/3
f 8/5/5 4/3/5 22/15/5 21/31/5
f 22/15/9 20/14/9 47/32/9
f 10/13/1 14/27/1 18/33/1 20/14/1
f 11/17/7 8/5/7 21/31/7 19/29/7
f 17/30/10 18/34/10 56/35/10 59/36/10
f 23/22/11 25/21/11 29/37/11 27/38/11
f 9/20/12 2/2/12 24/39/12 26/40/12
f 12/16/13 9/28/13 26/41/13 25/21/13
f 2/9/14 6/7/14 23/22/14 24/42/14
f 30/43/15 28/44/15 32/45/15 34/46/15
f 24/42/16 23/22/16 27/38/16 28/47/16
f 26/40/17 24/39/17 28/44/17 30/43/17
f 25/21/18 26/41/18 30/48/18 29/37/18
f 33/49/19 34/50/19 38/51/19 37/52/19
f 29/37/15 30/48/15 34/50/15 33/49/15
f 27/38/15 29/37/15 33/49/15 31/53/15
f 28/47/15 27/38/15 31/53/15 32/54/15
f 36/55/15 35/56/15 37/52/15 38/51/15
f 31/53/20 33/49/20 37/52/20 35/56/20
f 32/54/21 31/53/21 35/56/21 36/55/21
f 34/46/22 32/45/22 36/57/22 38/58/22
f 39/25/23 42/24/23 46/59/23 43/60/23
f 15/18/24 14/61/24 40/62/24 41/63/24
f 16/19/3 15/18/3 41/63/3 42/24/3
f 14/27/1 13/26/1 39/64/1 40/65/1
f 46/59/3 45/66/3 50/67/3 49/68/3
f 41/63/25 40/62/25 44/69/25 45/66/25
f 42/24/3 41/63/3 45/66/3 46/59/3
f 40/65/1 39/64/1 43/70/1 44/71/1
f 45/66/26 44/69/26 51/72/26 50/67/26
f 18/34/27 17/30/27 47/73/27
f 20/14/28 18/33/28 47/32/28
f 21/31/29 22/15/29 47/74/29
f 19/29/30 21/31/30 47/74/30
f 17/30/31 19/29/31 47/74/31
f 43/60/32 46/59/32 49/68/32 52/75/32
f 44/71/1 43/70/1 52/76/1 51/77/1
f 51/77/1 52/76/1 53/78/1 55/79/1
f 53/80/33 48/81/33 59/82/33 56/83/33
f 49/68/3 50/67/3 54/84/3 48/81/3
f 50/67/34 51/72/34 55/85/34 54/84/34
f 52/75/35 49/68/35 48/81/35 53/80/35
f 58/86/36 57/87/36 56/88/36 59/82/36
f 54/84/37 55/85/37 57/87/37 58/86/37
f 48/81/38 54/84/38 58/86/38 59/82/38
f 55/79/39 53/78/39 56/89/39 57/90/39
f 18/33/40 14/27/40 57/90/40 56/91/40
f 14/61/41 15/18/41 58/86/41 57/87/41
f 15/18/42 17/30/42 59/36/42 58/86/42
o mag_Cube.003
v 0.017061 0.051191 0.046898
v -0.017061 0.051191 0.046898
v 0.034123 0.065726 0.077500
v -0.034123 0.065726 0.077500
v 0.017061 -0.018562 0.104747
v -0.017061 -0.018562 0.104747
v 0.034123 -0.004027 0.135349
v -0.034123 -0.004027 0.135349
vt 0.625000 1.000000
vt 0.625000 1.000000
vt 0.625000 0.750000
vt 0.625000 0.750000
vt 0.625000 1.000000
vt 0.625000 0.750000
vt 0.625000 0.750000
vt 0.625000 1.000000
vn 0.0000 0.9033 -0.4290
vn 0.0000 -0.9033 0.4290
vn -0.8874 -0.2943 -0.3549
vn 0.0000 0.6384 0.7697
vn 0.8874 -0.2943 -0.3549
vn 0.0000 -0.6384 -0.7697
usemtl None
s off
f 61/92/43 63/93/43 62/94/43 60/95/43
f 65/96/44 64/97/44 66/98/44 67/99/44
f 63/93/45 61/92/45 65/96/45 67/99/45
f 62/94/46 63/93/46 67/99/46 66/98/46
f 60/95/47 62/94/47 66/98/47 64/97/47
f 61/92/48 60/95/48 64/97/48 65/96/48
